<?xml version="1.0" encoding="utf-8"?>
<!-- Generator: Adobe Illustrator 17.1.0, SVG Export Plug-In . SVG Version: 6.00 Build 0)  -->
<!DOCTYPE svg PUBLIC "-//W3C//DTD SVG 1.1//EN" "http://www.w3.org/Graphics/SVG/1.1/DTD/svg11.dtd">
<svg version="1.1" id="loading-circle" xmlns="http://www.w3.org/2000/svg" xmlns:xlink="http://www.w3.org/1999/xlink" x="0px"
	 y="0px" viewBox="0 0 128 128" enable-background="new 0 0 128 128" xml:space="preserve">
<path id="loading-circle-line-1" fill="#231F20" d="M68.0554,123.9175c0,2.2547-1.8278,4.0825-4.0825,4.0825l0,0
	c-2.2547,0-4.0825-1.8278-4.0825-4.0825V91.2576c0-2.2547,1.8278-4.0825,4.0825-4.0825l0,0c2.2547,0,4.0825,1.8278,4.0825,4.0825
	V123.9175z"/>
<path id="loading-circle-line-2" fill="#231F20" d="M97.4708,113.8624c1.1273,1.9526,0.4583,4.4494-1.4943,5.5768l0,0
	c-1.9526,1.1273-4.4494,0.4583-5.5768-1.4943l-16.33-28.2843c-1.1273-1.9526-0.4583-4.4494,1.4943-5.5768l0,0
	c1.9526-1.1273,4.4494-0.4583,5.5768,1.4943L97.4708,113.8624z"/>
<path id="loading-circle-line-3" fill="#231F20" d="M117.9178,90.4467c1.9526,1.1273,2.6216,3.6242,1.4943,5.5768l0,0
	c-1.1273,1.9526-3.6242,2.6216-5.5768,1.4943l-28.2843-16.33c-1.9526-1.1273-2.6216-3.6242-1.4943-5.5768l0,0
	c1.1273-1.9526,3.6242-2.6216,5.5768-1.4943L117.9178,90.4467z"/>
<path id="loading-circle-line-4" fill="#231F20" d="M123.9175,59.9446c2.2547,0,4.0825,1.8278,4.0825,4.0825l0,0
	c0,2.2547-1.8278,4.0825-4.0825,4.0825H91.2576c-2.2547,0-4.0825-1.8278-4.0825-4.0825l0,0c0-2.2547,1.8278-4.0825,4.0825-4.0825
	H123.9175z"/>
<path id="loading-circle-line-5" fill="#231F20" d="M113.8624,30.5292c1.9526-1.1273,4.4494-0.4583,5.5768,1.4943l0,0
	c1.1273,1.9526,0.4583,4.4494-1.4943,5.5768l-28.2843,16.33c-1.9526,1.1273-4.4494,0.4583-5.5768-1.4943l0,0
	c-1.1273-1.9526-0.4583-4.4494,1.4943-5.5768L113.8624,30.5292z"/>
<path id="loading-circle-line-6" fill="#231F20" d="M90.4467,10.0822c1.1273-1.9526,3.6242-2.6216,5.5768-1.4943l0,0
	c1.9526,1.1273,2.6216,3.6242,1.4943,5.5768l-16.33,28.2843c-1.1273,1.9526-3.6242,2.6216-5.5768,1.4943l0,0
	c-1.9526-1.1273-2.6216-3.6242-1.4943-5.5768L90.4467,10.0822z"/>
<path id="loading-circle-line-7" fill="#231F20" d="M59.9446,4.0825C59.9446,1.8278,61.7724,0,64.0271,0l0,0
	c2.2547,0,4.0825,1.8278,4.0825,4.0825v32.6599c0,2.2547-1.8278,4.0825-4.0825,4.0825l0,0c-2.2547,0-4.0825-1.8278-4.0825-4.0825
	V4.0825z"/>
<path id="loading-circle-line-8" fill="#231F20" d="M30.5292,14.1376c-1.1273-1.9526-0.4583-4.4494,1.4943-5.5768l0,0
	c1.9526-1.1273,4.4494-0.4583,5.5768,1.4943l16.33,28.2843c1.1273,1.9526,0.4583,4.4494-1.4943,5.5768l0,0
	c-1.9526,1.1273-4.4494,0.4583-5.5768-1.4943L30.5292,14.1376z"/>
<path id="loading-circle-line-9" fill="#231F20" d="M10.0822,37.5533c-1.9526-1.1273-2.6216-3.6242-1.4943-5.5768l0,0
	c1.1273-1.9526,3.6242-2.6216,5.5768-1.4943l28.2843,16.33c1.9526,1.1273,2.6216,3.6242,1.4943,5.5768l0,0
	c-1.1273,1.9526-3.6242,2.6216-5.5768,1.4943L10.0822,37.5533z"/>
<path id="loading-circle-line-10" fill="#231F20" d="M4.0825,68.0554C1.8278,68.0554,0,66.2276,0,63.9729l0,0
	c0-2.2547,1.8278-4.0825,4.0825-4.0825h32.6599c2.2547,0,4.0825,1.8278,4.0825,4.0825l0,0c0,2.2547-1.8278,4.0825-4.0825,4.0825
	H4.0825z"/>
<path id="loading-circle-line-11" fill="#231F20" d="M14.1376,97.4708c-1.9526,1.1273-4.4494,0.4583-5.5768-1.4943l0,0
	c-1.1273-1.9526-0.4583-4.4494,1.4943-5.5768l28.2843-16.33c1.9526-1.1273,4.4494-0.4583,5.5768,1.4943l0,0
	c1.1273,1.9526,0.4583,4.4494-1.4943,5.5768L14.1376,97.4708z"/>
<path id="loading-circle-line-12" fill="#231F20" d="M37.5533,117.9178c-1.1273,1.9526-3.6242,2.6216-5.5768,1.4943l0,0
	c-1.9526-1.1273-2.6216-3.6242-1.4943-5.5768l16.33-28.2843c1.1273-1.9526,3.6242-2.6216,5.5768-1.4943l0,0
	c1.9526,1.1273,2.6216,3.6242,1.4943,5.5768L37.5533,117.9178z"/>
</svg>
